<svg xmlns="http://www.w3.org/2000/svg" xmlns:xlink="http://www.w3.org/1999/xlink" version="1.1" width="256" height="256" viewBox="0 0 256 256" xml:space="preserve">

<defs>
</defs>
<g style="stroke: none; stroke-width: 0; stroke-dasharray: none; stroke-linecap: butt; stroke-linejoin: miter; stroke-miterlimit: 10; fill: none; fill-rule: nonzero; opacity: 1;" transform="translate(1.4065934065934016 1.4065934065934016) scale(2.81 2.81)" >
	<path d="M 35.715 67.558 v 8.732 c 0 3.045 -2.469 5.514 -5.514 5.514 h 0 c -3.045 0 -5.514 -2.469 -5.514 -5.514 V 57.978 c 0 -0.761 0.154 -1.487 0.433 -2.146 c 0.761 -1.8 2.452 -3.112 4.47 -3.334 L 35.715 67.558 z" style="stroke: none; stroke-width: 1; stroke-dasharray: none; stroke-linecap: butt; stroke-linejoin: miter; stroke-miterlimit: 10; fill: rgb(117,117,117); fill-rule: nonzero; opacity: 1;" transform=" matrix(1 0 0 1 0 0) " stroke-linecap="round" />
	<path d="M 37.398 89 c 0 -3.974 -3.222 -7.196 -7.196 -7.196 h 0 c -3.974 0 -7.196 3.222 -7.196 7.196 H 37.398 z" style="stroke: none; stroke-width: 1; stroke-dasharray: none; stroke-linecap: butt; stroke-linejoin: miter; stroke-miterlimit: 10; fill: rgb(255,194,0); fill-rule: nonzero; opacity: 1;" transform=" matrix(1 0 0 1 0 0) " stroke-linecap="round" />
	<path d="M 54.285 67.557 v 8.733 c 0 3.045 2.469 5.514 5.514 5.514 h 0 c 3.045 0 5.514 -2.469 5.514 -5.514 V 66.62 v -8.643 c 0 -2.839 -2.146 -5.177 -4.904 -5.48 L 54.285 67.557 z" style="stroke: none; stroke-width: 1; stroke-dasharray: none; stroke-linecap: butt; stroke-linejoin: miter; stroke-miterlimit: 10; fill: rgb(117,117,117); fill-rule: nonzero; opacity: 1;" transform=" matrix(1 0 0 1 0 0) " stroke-linecap="round" />
	<path d="M 66.995 89 c 0 -3.974 -3.222 -7.196 -7.196 -7.196 h 0 c -3.974 0 -7.196 3.222 -7.196 7.196 H 66.995 z" style="stroke: none; stroke-width: 1; stroke-dasharray: none; stroke-linecap: butt; stroke-linejoin: miter; stroke-miterlimit: 10; fill: rgb(255,194,0); fill-rule: nonzero; opacity: 1;" transform=" matrix(1 0 0 1 0 0) " stroke-linecap="round" />
	<path d="M 29.591 52.498 c -2.018 0.222 -3.709 1.534 -4.47 3.334 c -0.279 0.66 -0.433 1.385 -0.433 2.146 v 9.173 h 12.51 L 29.591 52.498 z" style="stroke: none; stroke-width: 1; stroke-dasharray: none; stroke-linecap: butt; stroke-linejoin: miter; stroke-miterlimit: 10; fill: rgb(255,194,0); fill-rule: nonzero; opacity: 1;" transform=" matrix(1 0 0 1 0 0) " stroke-linecap="round" />
	<path d="M 60.409 52.498 c 2.018 0.222 3.709 1.534 4.47 3.334 c 0.279 0.66 0.433 1.385 0.433 2.146 v 9.173 h -12.51 L 60.409 52.498 z" style="stroke: none; stroke-width: 1; stroke-dasharray: none; stroke-linecap: butt; stroke-linejoin: miter; stroke-miterlimit: 10; fill: rgb(255,194,0); fill-rule: nonzero; opacity: 1;" transform=" matrix(1 0 0 1 0 0) " stroke-linecap="round" />
	<path d="M 60.408 28.073 H 29.592 v -3.965 c 0 -8.509 6.898 -15.408 15.408 -15.408 h 0 c 8.509 0 15.408 6.898 15.408 15.408 V 28.073 z" style="stroke: none; stroke-width: 1; stroke-dasharray: none; stroke-linecap: butt; stroke-linejoin: miter; stroke-miterlimit: 10; fill: rgb(203,203,203); fill-rule: nonzero; opacity: 1;" transform=" matrix(1 0 0 1 0 0) " stroke-linecap="round" />
	<path d="M 45 70.67 L 45 70.67 c -8.51 0 -15.408 -6.898 -15.408 -15.408 V 28.073 h 30.816 v 27.189 C 60.408 63.772 53.51 70.67 45 70.67 z" style="stroke: none; stroke-width: 1; stroke-dasharray: none; stroke-linecap: butt; stroke-linejoin: miter; stroke-miterlimit: 10; fill: rgb(203,203,203); fill-rule: nonzero; opacity: 1;" transform=" matrix(1 0 0 1 0 0) " stroke-linecap="round" />
	<path d="M 29.594 31.844 c -2.264 -0.97 -4.95 -0.131 -6.235 2.046 c -1.396 2.365 -0.61 5.413 1.755 6.809 c 1.415 0.835 3.076 0.889 4.48 0.291 L 29.594 31.844 z" style="stroke: none; stroke-width: 1; stroke-dasharray: none; stroke-linecap: butt; stroke-linejoin: miter; stroke-miterlimit: 10; fill: rgb(255,194,0); fill-rule: nonzero; opacity: 1;" transform=" matrix(1 0 0 1 0 0) " stroke-linecap="round" />
	<circle cx="9.992" cy="26.002000000000002" r="4.972" style="stroke: none; stroke-width: 1; stroke-dasharray: none; stroke-linecap: butt; stroke-linejoin: miter; stroke-miterlimit: 10; fill: rgb(255,194,0); fill-rule: nonzero; opacity: 1;" transform="  matrix(1 0 0 1 0 0) "/>
	<path d="M 60.406 31.844 c 2.264 -0.97 4.95 -0.131 6.235 2.046 c 1.396 2.365 0.61 5.413 -1.755 6.809 c -1.415 0.835 -3.074 0.889 -4.478 0.292 L 60.406 31.844 z" style="stroke: none; stroke-width: 1; stroke-dasharray: none; stroke-linecap: butt; stroke-linejoin: miter; stroke-miterlimit: 10; fill: rgb(255,194,0); fill-rule: nonzero; opacity: 1;" transform=" matrix(1 0 0 1 0 0) " stroke-linecap="round" />
	<circle cx="80.002" cy="26.002000000000002" r="4.972" style="stroke: none; stroke-width: 1; stroke-dasharray: none; stroke-linecap: butt; stroke-linejoin: miter; stroke-miterlimit: 10; fill: rgb(255,194,0); fill-rule: nonzero; opacity: 1;" transform="  matrix(1 0 0 1 0 0) "/>
	<polygon points="24.99,32.21 14.96,26.29 12.94,30.15 22.7,35.91 " style="stroke: none; stroke-width: 1; stroke-dasharray: none; stroke-linecap: butt; stroke-linejoin: miter; stroke-miterlimit: 10; fill: rgb(117,117,117); fill-rule: nonzero; opacity: 1;" transform="  matrix(1 0 0 1 0 0) "/>
	<polygon points="77.17,30.09 67.3,35.91 65.01,32.21 75.03,26.29 " style="stroke: none; stroke-width: 1; stroke-dasharray: none; stroke-linecap: butt; stroke-linejoin: miter; stroke-miterlimit: 10; fill: rgb(117,117,117); fill-rule: nonzero; opacity: 1;" transform="  matrix(1 0 0 1 0 0) "/>
	<path d="M 45 56.96 L 45 56.96 c -3.269 0 -5.92 -2.65 -5.92 -5.92 V 40.595 H 50.92 v 10.446 C 50.92 54.31 48.269 56.96 45 56.96 z" style="stroke: none; stroke-width: 1; stroke-dasharray: none; stroke-linecap: butt; stroke-linejoin: miter; stroke-miterlimit: 10; fill: rgb(125,199,226); fill-rule: nonzero; opacity: 1;" transform=" matrix(1 0 0 1 0 0) " stroke-linecap="round" />
	<path d="M 61.408 29.073 H 28.592 v -4.964 c 0 -9.047 7.36 -16.408 16.408 -16.408 c 9.048 0 16.408 7.361 16.408 16.408 V 29.073 z M 30.592 27.073 h 28.816 v -2.964 c 0 -7.945 -6.464 -14.408 -14.408 -14.408 s -14.408 6.463 -14.408 14.408 V 27.073 z" style="stroke: none; stroke-width: 1; stroke-dasharray: none; stroke-linecap: butt; stroke-linejoin: miter; stroke-miterlimit: 10; fill: rgb(0,0,0); fill-rule: nonzero; opacity: 1;" transform=" matrix(1 0 0 1 0 0) " stroke-linecap="round" />
	<path d="M 45 71.67 c -9.047 0 -16.408 -7.36 -16.408 -16.408 V 27.073 h 32.816 v 28.188 C 61.408 64.31 54.048 71.67 45 71.67 z M 30.592 29.073 v 26.188 c 0 7.944 6.463 14.408 14.408 14.408 s 14.408 -6.464 14.408 -14.408 V 29.073 H 30.592 z" style="stroke: none; stroke-width: 1; stroke-dasharray: none; stroke-linecap: butt; stroke-linejoin: miter; stroke-miterlimit: 10; fill: rgb(0,0,0); fill-rule: nonzero; opacity: 1;" transform=" matrix(1 0 0 1 0 0) " stroke-linecap="round" />
	<path d="M 30.202 82.804 c -3.592 0 -6.514 -2.922 -6.514 -6.514 V 57.978 c 0 -0.879 0.172 -1.732 0.513 -2.535 c 0.918 -2.172 2.941 -3.682 5.281 -3.939 c 0.554 -0.058 1.043 0.336 1.104 0.885 s -0.335 1.043 -0.884 1.104 c -1.621 0.179 -3.022 1.225 -3.659 2.73 c -0.235 0.556 -0.354 1.146 -0.354 1.756 V 76.29 c 0 2.489 2.025 4.514 4.514 4.514 s 4.514 -2.024 4.514 -4.514 v -8.732 c 0 -0.553 0.448 -1 1 -1 s 1 0.447 1 1 v 8.732 C 36.715 79.882 33.793 82.804 30.202 82.804 z" style="stroke: none; stroke-width: 1; stroke-dasharray: none; stroke-linecap: butt; stroke-linejoin: miter; stroke-miterlimit: 10; fill: rgb(0,0,0); fill-rule: nonzero; opacity: 1;" transform=" matrix(1 0 0 1 0 0) " stroke-linecap="round" />
	<path d="M 37.398 90 H 23.005 c -0.552 0 -1 -0.447 -1 -1 c 0 -4.52 3.677 -8.196 8.196 -8.196 S 38.398 84.48 38.398 89 C 38.398 89.553 37.95 90 37.398 90 z M 24.086 88 h 12.231 c -0.479 -2.943 -3.04 -5.196 -6.116 -5.196 S 24.565 85.057 24.086 88 z" style="stroke: none; stroke-width: 1; stroke-dasharray: none; stroke-linecap: butt; stroke-linejoin: miter; stroke-miterlimit: 10; fill: rgb(0,0,0); fill-rule: nonzero; opacity: 1;" transform=" matrix(1 0 0 1 0 0) " stroke-linecap="round" />
	<path d="M 59.798 82.804 c -3.591 0 -6.513 -2.922 -6.513 -6.514 v -8.732 c 0 -0.553 0.447 -1 1 -1 s 1 0.447 1 1 v 8.732 c 0 2.489 2.024 4.514 4.513 4.514 c 2.489 0 4.514 -2.024 4.514 -4.514 V 57.978 c 0 -2.306 -1.726 -4.234 -4.013 -4.486 c -0.549 -0.061 -0.945 -0.555 -0.885 -1.104 s 0.544 -0.946 1.104 -0.885 c 3.303 0.364 5.794 3.147 5.794 6.475 V 76.29 C 66.312 79.882 63.39 82.804 59.798 82.804 z" style="stroke: none; stroke-width: 1; stroke-dasharray: none; stroke-linecap: butt; stroke-linejoin: miter; stroke-miterlimit: 10; fill: rgb(0,0,0); fill-rule: nonzero; opacity: 1;" transform=" matrix(1 0 0 1 0 0) " stroke-linecap="round" />
	<path d="M 66.995 90 H 52.602 c -0.553 0 -1 -0.447 -1 -1 c 0 -4.52 3.677 -8.196 8.196 -8.196 S 67.995 84.48 67.995 89 C 67.995 89.553 67.548 90 66.995 90 z M 53.683 88 h 12.231 c -0.479 -2.943 -3.039 -5.196 -6.116 -5.196 C 56.722 82.804 54.162 85.057 53.683 88 z" style="stroke: none; stroke-width: 1; stroke-dasharray: none; stroke-linecap: butt; stroke-linejoin: miter; stroke-miterlimit: 10; fill: rgb(0,0,0); fill-rule: nonzero; opacity: 1;" transform=" matrix(1 0 0 1 0 0) " stroke-linecap="round" />
	<path d="M 27.644 42.386 c -1.057 0 -2.109 -0.278 -3.038 -0.826 c -1.374 -0.811 -2.35 -2.108 -2.748 -3.653 s -0.171 -3.152 0.64 -4.526 c 1.522 -2.579 4.743 -3.635 7.49 -2.456 c 0.368 0.157 0.606 0.519 0.606 0.919 v 9.145 c 0 0.401 -0.239 0.763 -0.608 0.92 C 29.238 42.228 28.44 42.386 27.644 42.386 z M 27.648 32.445 c -1.369 0 -2.695 0.711 -3.428 1.953 c -0.539 0.914 -0.69 1.983 -0.426 3.01 c 0.265 1.027 0.914 1.89 1.828 2.429 c 0.913 0.54 1.968 0.689 2.972 0.437 V 32.56 C 28.281 32.482 27.964 32.445 27.648 32.445 z" style="stroke: none; stroke-width: 1; stroke-dasharray: none; stroke-linecap: butt; stroke-linejoin: miter; stroke-miterlimit: 10; fill: rgb(0,0,0); fill-rule: nonzero; opacity: 1;" transform=" matrix(1 0 0 1 0 0) " stroke-linecap="round" />
	<path d="M 22.695 36.906 c -0.173 0 -0.348 -0.044 -0.507 -0.139 l -9.758 -5.759 c -0.476 -0.281 -0.634 -0.894 -0.353 -1.37 c 0.281 -0.475 0.894 -0.634 1.37 -0.353 l 9.758 5.759 c 0.476 0.281 0.634 0.894 0.353 1.37 C 23.371 36.73 23.038 36.906 22.695 36.906 z" style="stroke: none; stroke-width: 1; stroke-dasharray: none; stroke-linecap: butt; stroke-linejoin: miter; stroke-miterlimit: 10; fill: rgb(0,0,0); fill-rule: nonzero; opacity: 1;" transform=" matrix(1 0 0 1 0 0) " stroke-linecap="round" />
	<path d="M 24.993 33.21 c -0.173 0 -0.348 -0.044 -0.507 -0.139 L 14.452 27.15 c -0.476 -0.281 -0.634 -0.894 -0.353 -1.37 c 0.281 -0.475 0.894 -0.634 1.37 -0.353 l 10.034 5.921 c 0.476 0.281 0.634 0.894 0.353 1.37 C 25.668 33.035 25.335 33.21 24.993 33.21 z" style="stroke: none; stroke-width: 1; stroke-dasharray: none; stroke-linecap: butt; stroke-linejoin: miter; stroke-miterlimit: 10; fill: rgb(0,0,0); fill-rule: nonzero; opacity: 1;" transform=" matrix(1 0 0 1 0 0) " stroke-linecap="round" />
	<path d="M 9.985 31.973 c -1.031 0 -2.075 -0.267 -3.025 -0.827 c -1.374 -0.811 -2.35 -2.108 -2.748 -3.653 s -0.17 -3.152 0.64 -4.526 s 2.108 -2.35 3.653 -2.748 c 1.544 -0.397 3.152 -0.17 4.525 0.64 c 1.374 0.811 2.35 2.108 2.748 3.652 c 0.398 1.545 0.171 3.152 -0.64 4.526 l 0 0 C 14.025 30.923 12.03 31.973 9.985 31.973 z M 10.002 22.029 c -0.333 0 -0.667 0.042 -0.998 0.127 c -1.027 0.265 -1.89 0.914 -2.429 1.827 c -0.54 0.914 -0.691 1.983 -0.426 3.01 c 0.265 1.027 0.914 1.89 1.828 2.429 c 1.887 1.115 4.327 0.483 5.439 -1.402 c 0.539 -0.914 0.69 -1.982 0.426 -3.01 c -0.265 -1.027 -0.914 -1.89 -1.828 -2.429 C 11.395 22.216 10.703 22.029 10.002 22.029 z M 14.277 28.529 h 0.01 H 14.277 z" style="stroke: none; stroke-width: 1; stroke-dasharray: none; stroke-linecap: butt; stroke-linejoin: miter; stroke-miterlimit: 10; fill: rgb(0,0,0); fill-rule: nonzero; opacity: 1;" transform=" matrix(1 0 0 1 0 0) " stroke-linecap="round" />
	<path d="M 9.996 22.03 c -0.552 0 -1 -0.448 -1 -1 v -6.808 c 0 -0.552 0.448 -1 1 -1 s 1 0.448 1 1 v 6.808 C 10.996 21.582 10.548 22.03 9.996 22.03 z" style="stroke: none; stroke-width: 1; stroke-dasharray: none; stroke-linecap: butt; stroke-linejoin: miter; stroke-miterlimit: 10; fill: rgb(0,0,0); fill-rule: nonzero; opacity: 1;" transform=" matrix(1 0 0 1 0 0) " stroke-linecap="round" />
	<path d="M 9.996 15.222 c -3.293 0 -5.973 -2.679 -5.973 -5.973 c 0 -0.552 0.448 -1 1 -1 s 1 0.448 1 1 c 0 2.19 1.782 3.973 3.973 3.973 s 3.973 -1.782 3.973 -3.973 c 0 -0.552 0.448 -1 1 -1 s 1 0.448 1 1 C 15.968 12.542 13.289 15.222 9.996 15.222 z" style="stroke: none; stroke-width: 1; stroke-dasharray: none; stroke-linecap: butt; stroke-linejoin: miter; stroke-miterlimit: 10; fill: rgb(0,0,0); fill-rule: nonzero; opacity: 1;" transform=" matrix(1 0 0 1 0 0) " stroke-linecap="round" />
	<path d="M 62.355 42.386 c -0.795 0 -1.593 -0.157 -2.34 -0.476 c -0.369 -0.157 -0.608 -0.519 -0.608 -0.92 l -0.001 -9.146 c 0 -0.4 0.238 -0.761 0.605 -0.919 c 2.749 -1.178 5.969 -0.122 7.49 2.456 c 0.811 1.374 1.038 2.981 0.64 4.526 c -0.397 1.545 -1.374 2.842 -2.748 3.653 C 64.466 42.108 63.412 42.386 62.355 42.386 z M 61.407 40.274 c 1.004 0.25 2.057 0.102 2.971 -0.437 c 0.913 -0.539 1.563 -1.402 1.827 -2.429 s 0.113 -2.097 -0.426 -3.01 c -0.902 -1.527 -2.693 -2.252 -4.373 -1.838 L 61.407 40.274 z" style="stroke: none; stroke-width: 1; stroke-dasharray: none; stroke-linecap: butt; stroke-linejoin: miter; stroke-miterlimit: 10; fill: rgb(0,0,0); fill-rule: nonzero; opacity: 1;" transform=" matrix(1 0 0 1 0 0) " stroke-linecap="round" />
	<path d="M 67.305 36.906 c -0.343 0 -0.676 -0.176 -0.862 -0.492 c -0.28 -0.476 -0.122 -1.089 0.354 -1.37 l 9.863 -5.821 c 0.475 -0.281 1.088 -0.122 1.369 0.353 c 0.28 0.476 0.122 1.089 -0.354 1.37 l -9.863 5.821 C 67.652 36.862 67.478 36.906 67.305 36.906 z" style="stroke: none; stroke-width: 1; stroke-dasharray: none; stroke-linecap: butt; stroke-linejoin: miter; stroke-miterlimit: 10; fill: rgb(0,0,0); fill-rule: nonzero; opacity: 1;" transform=" matrix(1 0 0 1 0 0) " stroke-linecap="round" />
	<path d="M 65.008 33.21 c -0.342 0 -0.676 -0.176 -0.862 -0.492 c -0.28 -0.476 -0.123 -1.089 0.354 -1.37 l 10.025 -5.917 c 0.474 -0.28 1.089 -0.123 1.369 0.353 s 0.123 1.089 -0.354 1.37 l -10.025 5.917 C 65.355 33.166 65.181 33.21 65.008 33.21 z" style="stroke: none; stroke-width: 1; stroke-dasharray: none; stroke-linecap: butt; stroke-linejoin: miter; stroke-miterlimit: 10; fill: rgb(0,0,0); fill-rule: nonzero; opacity: 1;" transform=" matrix(1 0 0 1 0 0) " stroke-linecap="round" />
	<path d="M 80.015 31.977 c -0.5 0 -1.003 -0.063 -1.501 -0.191 c -1.544 -0.398 -2.842 -1.374 -3.652 -2.748 c -0.811 -1.374 -1.038 -2.981 -0.64 -4.525 c 0.397 -1.545 1.374 -2.842 2.748 -3.653 c 1.374 -0.811 2.982 -1.037 4.524 -0.64 c 1.545 0.398 2.843 1.374 3.653 2.748 c 0.811 1.374 1.038 2.981 0.64 4.526 c -0.397 1.545 -1.374 2.842 -2.748 3.653 C 82.108 31.695 81.069 31.977 80.015 31.977 z M 79.998 22.029 c -0.701 0 -1.393 0.188 -2.012 0.553 c -0.914 0.539 -1.563 1.402 -1.828 2.429 s -0.113 2.096 0.426 3.01 s 1.401 1.563 2.43 1.828 c 1.025 0.265 2.096 0.114 3.009 -0.426 c 0.914 -0.539 1.563 -1.402 1.828 -2.429 s 0.113 -2.097 -0.426 -3.01 s -1.401 -1.563 -2.429 -1.827 C 80.665 22.071 80.33 22.029 79.998 22.029 z" style="stroke: none; stroke-width: 1; stroke-dasharray: none; stroke-linecap: butt; stroke-linejoin: miter; stroke-miterlimit: 10; fill: rgb(0,0,0); fill-rule: nonzero; opacity: 1;" transform=" matrix(1 0 0 1 0 0) " stroke-linecap="round" />
	<path d="M 80.005 22.03 c -0.553 0 -1 -0.448 -1 -1 v -6.808 c 0 -0.552 0.447 -1 1 -1 s 1 0.448 1 1 v 6.808 C 81.005 21.582 80.558 22.03 80.005 22.03 z" style="stroke: none; stroke-width: 1; stroke-dasharray: none; stroke-linecap: butt; stroke-linejoin: miter; stroke-miterlimit: 10; fill: rgb(0,0,0); fill-rule: nonzero; opacity: 1;" transform=" matrix(1 0 0 1 0 0) " stroke-linecap="round" />
	<path d="M 80.005 15.222 c -3.293 0 -5.973 -2.679 -5.973 -5.973 c 0 -0.552 0.447 -1 1 -1 s 1 0.448 1 1 c 0 2.19 1.782 3.973 3.973 3.973 s 3.973 -1.782 3.973 -3.973 c 0 -0.552 0.447 -1 1 -1 s 1 0.448 1 1 C 85.978 12.542 83.298 15.222 80.005 15.222 z" style="stroke: none; stroke-width: 1; stroke-dasharray: none; stroke-linecap: butt; stroke-linejoin: miter; stroke-miterlimit: 10; fill: rgb(0,0,0); fill-rule: nonzero; opacity: 1;" transform=" matrix(1 0 0 1 0 0) " stroke-linecap="round" />
	<path d="M 48.736 24.008 h -7.473 c -0.552 0 -1 -0.448 -1 -1 s 0.448 -1 1 -1 h 7.473 c 0.553 0 1 0.448 1 1 S 49.289 24.008 48.736 24.008 z" style="stroke: none; stroke-width: 1; stroke-dasharray: none; stroke-linecap: butt; stroke-linejoin: miter; stroke-miterlimit: 10; fill: rgb(0,0,0); fill-rule: nonzero; opacity: 1;" transform=" matrix(1 0 0 1 0 0) " stroke-linecap="round" />
	<path d="M 40.214 18.356 h -0.673 c -0.552 0 -1 -0.448 -1 -1 s 0.448 -1 1 -1 h 0.673 c 0.552 0 1 0.448 1 1 S 40.766 18.356 40.214 18.356 z" style="stroke: none; stroke-width: 1; stroke-dasharray: none; stroke-linecap: butt; stroke-linejoin: miter; stroke-miterlimit: 10; fill: rgb(0,0,0); fill-rule: nonzero; opacity: 1;" transform=" matrix(1 0 0 1 0 0) " stroke-linecap="round" />
	<path d="M 50.459 18.356 h -0.673 c -0.553 0 -1 -0.448 -1 -1 s 0.447 -1 1 -1 h 0.673 c 0.553 0 1 0.448 1 1 S 51.012 18.356 50.459 18.356 z" style="stroke: none; stroke-width: 1; stroke-dasharray: none; stroke-linecap: butt; stroke-linejoin: miter; stroke-miterlimit: 10; fill: rgb(0,0,0); fill-rule: nonzero; opacity: 1;" transform=" matrix(1 0 0 1 0 0) " stroke-linecap="round" />
	<path d="M 45 57.96 c -3.815 0 -6.919 -3.104 -6.919 -6.919 V 40.595 c 0 -0.552 0.448 -1 1 -1 H 50.92 c 0.553 0 1 0.448 1 1 v 10.446 C 51.92 54.856 48.815 57.96 45 57.96 z M 40.081 41.595 v 9.446 c 0 2.712 2.207 4.919 4.919 4.919 c 2.713 0 4.92 -2.207 4.92 -4.919 v -9.446 H 40.081 z" style="stroke: none; stroke-width: 1; stroke-dasharray: none; stroke-linecap: butt; stroke-linejoin: miter; stroke-miterlimit: 10; fill: rgb(0,0,0); fill-rule: nonzero; opacity: 1;" transform=" matrix(1 0 0 1 0 0) " stroke-linecap="round" />
	<path d="M 45 9.701 c -0.552 0 -1 -0.448 -1 -1 V 1 c 0 -0.552 0.448 -1 1 -1 s 1 0.448 1 1 v 7.701 C 46 9.253 45.552 9.701 45 9.701 z" style="stroke: none; stroke-width: 1; stroke-dasharray: none; stroke-linecap: butt; stroke-linejoin: miter; stroke-miterlimit: 10; fill: rgb(0,0,0); fill-rule: nonzero; opacity: 1;" transform=" matrix(1 0 0 1 0 0) " stroke-linecap="round" />
	<path d="M 35.198 68.15 h -10.51 c -0.552 0 -1 -0.447 -1 -1 v -9.173 c 0 -0.879 0.172 -1.732 0.513 -2.535 c 0.918 -2.172 2.941 -3.682 5.281 -3.939 c 0.554 -0.058 1.043 0.336 1.104 0.885 s -0.335 1.043 -0.884 1.104 c -1.621 0.179 -3.022 1.225 -3.659 2.73 c -0.235 0.556 -0.354 1.146 -0.354 1.756 v 8.173 h 9.51 c 0.552 0 1 0.447 1 1 S 35.75 68.15 35.198 68.15 z" style="stroke: none; stroke-width: 1; stroke-dasharray: none; stroke-linecap: butt; stroke-linejoin: miter; stroke-miterlimit: 10; fill: rgb(0,0,0); fill-rule: nonzero; opacity: 1;" transform=" matrix(1 0 0 1 0 0) " stroke-linecap="round" />
	<path d="M 65.312 68.15 h -10.51 c -0.553 0 -1 -0.447 -1 -1 s 0.447 -1 1 -1 h 9.51 v -8.173 c 0 -0.609 -0.119 -1.2 -0.354 -1.757 c -0.637 -1.505 -2.039 -2.551 -3.659 -2.729 c -0.549 -0.061 -0.945 -0.555 -0.885 -1.104 c 0.061 -0.548 0.555 -0.942 1.104 -0.885 c 2.34 0.258 4.363 1.768 5.282 3.939 c 0.34 0.805 0.512 1.657 0.512 2.535 v 9.173 C 66.312 67.703 65.864 68.15 65.312 68.15 z" style="stroke: none; stroke-width: 1; stroke-dasharray: none; stroke-linecap: butt; stroke-linejoin: miter; stroke-miterlimit: 10; fill: rgb(0,0,0); fill-rule: nonzero; opacity: 1;" transform=" matrix(1 0 0 1 0 0) " stroke-linecap="round" />
</g>
</svg>