<svg xmlns="http://www.w3.org/2000/svg" xmlns:xlink="http://www.w3.org/1999/xlink" version="1.1" width="256" height="256" viewBox="0 0 256 256" xml:space="preserve">

<defs>
</defs>
<g style="stroke: none; stroke-width: 0; stroke-dasharray: none; stroke-linecap: butt; stroke-linejoin: miter; stroke-miterlimit: 10; fill: none; fill-rule: nonzero; opacity: 1;" transform="translate(1.4065934065934016 1.4065934065934016) scale(2.81 2.81)" >
	<path d="M 35.665 87.065 c -0.12 0 -0.241 -0.021 -0.358 -0.066 c -0.387 -0.147 -0.642 -0.52 -0.642 -0.934 V 66.268 H 7.106 C 3.188 66.268 0 63.08 0 59.162 V 10.041 c 0 -3.918 3.188 -7.106 7.106 -7.106 h 75.788 c 3.919 0 7.106 3.188 7.106 7.106 v 49.122 c 0 3.918 -3.188 7.105 -7.106 7.105 H 54.781 L 36.409 86.733 C 36.215 86.949 35.943 87.065 35.665 87.065 z M 7.106 4.935 C 4.291 4.935 2 7.225 2 10.041 v 49.122 c 0 2.815 2.291 5.105 5.106 5.105 h 28.559 c 0.552 0 1 0.447 1 1 v 18.187 L 53.591 64.6 c 0.189 -0.211 0.46 -0.332 0.744 -0.332 h 28.559 c 2.815 0 5.106 -2.29 5.106 -5.105 V 10.041 c 0 -2.815 -2.291 -5.106 -5.106 -5.106 H 7.106 z" style="stroke: none; stroke-width: 1; stroke-dasharray: none; stroke-linecap: butt; stroke-linejoin: miter; stroke-miterlimit: 10; fill: rgb(0,0,0); fill-rule: nonzero; opacity: 1;" transform=" matrix(1 0 0 1 0 0) " stroke-linecap="round" />
	<path d="M 57.396 51.178 H 32.604 c -3.401 0 -6.167 -2.767 -6.167 -6.167 V 27.182 c 0 -3.401 2.767 -6.167 6.167 -6.167 h 24.791 c 3.401 0 6.168 2.767 6.168 6.167 v 17.829 C 63.563 48.411 60.797 51.178 57.396 51.178 z M 32.604 23.014 c -2.298 0 -4.167 1.87 -4.167 4.167 v 17.829 c 0 2.298 1.87 4.167 4.167 4.167 h 24.791 c 2.298 0 4.168 -1.869 4.168 -4.167 V 27.182 c 0 -2.298 -1.87 -4.167 -4.168 -4.167 H 32.604 z" style="stroke: none; stroke-width: 1; stroke-dasharray: none; stroke-linecap: butt; stroke-linejoin: miter; stroke-miterlimit: 10; fill: rgb(0,0,0); fill-rule: nonzero; opacity: 1;" transform=" matrix(1 0 0 1 0 0) " stroke-linecap="round" />
	<path d="M 22.093 41.409 c -0.552 0 -1 -0.448 -1 -1 v -9.81 c 0 -0.552 0.448 -1 1 -1 s 1 0.448 1 1 v 9.81 C 23.093 40.961 22.646 41.409 22.093 41.409 z" style="stroke: none; stroke-width: 1; stroke-dasharray: none; stroke-linecap: butt; stroke-linejoin: miter; stroke-miterlimit: 10; fill: rgb(0,0,0); fill-rule: nonzero; opacity: 1;" transform=" matrix(1 0 0 1 0 0) " stroke-linecap="round" />
	<path d="M 67.907 41.409 c -0.553 0 -1 -0.448 -1 -1 v -9.81 c 0 -0.552 0.447 -1 1 -1 s 1 0.448 1 1 v 9.81 C 68.907 40.961 68.46 41.409 67.907 41.409 z" style="stroke: none; stroke-width: 1; stroke-dasharray: none; stroke-linecap: butt; stroke-linejoin: miter; stroke-miterlimit: 10; fill: rgb(0,0,0); fill-rule: nonzero; opacity: 1;" transform=" matrix(1 0 0 1 0 0) " stroke-linecap="round" />
	<path d="M 39.021 34.813 c -0.552 0 -1 -0.448 -1 -1 v -3.59 c 0 -0.552 0.448 -1 1 -1 s 1 0.448 1 1 v 3.59 C 40.021 34.365 39.573 34.813 39.021 34.813 z" style="stroke: none; stroke-width: 1; stroke-dasharray: none; stroke-linecap: butt; stroke-linejoin: miter; stroke-miterlimit: 10; fill: rgb(0,0,0); fill-rule: nonzero; opacity: 1;" transform=" matrix(1 0 0 1 0 0) " stroke-linecap="round" />
	<path d="M 50.979 34.813 c -0.553 0 -1 -0.448 -1 -1 v -3.59 c 0 -0.552 0.447 -1 1 -1 s 1 0.448 1 1 v 3.59 C 51.979 34.365 51.532 34.813 50.979 34.813 z" style="stroke: none; stroke-width: 1; stroke-dasharray: none; stroke-linecap: butt; stroke-linejoin: miter; stroke-miterlimit: 10; fill: rgb(0,0,0); fill-rule: nonzero; opacity: 1;" transform=" matrix(1 0 0 1 0 0) " stroke-linecap="round" />
	<path d="M 45 43.67 c -2.199 0 -4.397 -0.82 -6.58 -2.461 c -0.442 -0.332 -0.531 -0.958 -0.199 -1.4 c 0.332 -0.441 0.959 -0.531 1.4 -0.199 c 3.62 2.719 7.138 2.72 10.758 0 c 0.442 -0.332 1.067 -0.243 1.4 0.199 c 0.331 0.441 0.242 1.068 -0.199 1.4 C 49.397 42.85 47.198 43.67 45 43.67 z" style="stroke: none; stroke-width: 1; stroke-dasharray: none; stroke-linecap: butt; stroke-linejoin: miter; stroke-miterlimit: 10; fill: rgb(0,0,0); fill-rule: nonzero; opacity: 1;" transform=" matrix(1 0 0 1 0 0) " stroke-linecap="round" />
	<path d="M 45 23.014 c -0.552 0 -1 -0.448 -1 -1 v -7.078 c 0 -0.552 0.448 -1 1 -1 s 1 0.448 1 1 v 7.078 C 46 22.566 45.552 23.014 45 23.014 z" style="stroke: none; stroke-width: 1; stroke-dasharray: none; stroke-linecap: butt; stroke-linejoin: miter; stroke-miterlimit: 10; fill: rgb(0,0,0); fill-rule: nonzero; opacity: 1;" transform=" matrix(1 0 0 1 0 0) " stroke-linecap="round" />
</g>
</svg>